Coordinates
version=1
nRows=8
nColumns=63
inDegrees=yes

Units are S.I. units (second, meters, Newtons, ...)
If the header above contains a line with 'inDegrees', this indicates whether rotational values are in degrees (yes) or radians (no).

endheader
time	pelvis_tilt	pelvis_list	pelvis_rotation	pelvis_tx	pelvis_ty	pelvis_tz	hip_flexion_r	hip_adduction_r	hip_rotation_r	knee_angle_r	knee_angle_r_beta	ankle_angle_r	subtalar_angle_r	mtp_angle_r	hip_flexion_l	hip_adduction_l	hip_rotation_l	knee_angle_l	knee_angle_l_beta	ankle_angle_l	subtalar_angle_l	mtp_angle_l	L5_S1_Flex_Ext	L5_S1_Lat_Bending	L5_S1_axial_rotation	L4_L5_Flex_Ext	L4_L5_Lat_Bending	L4_L5_axial_rotation	L3_L4_Flex_Ext	L3_L4_Lat_Bending	L3_L4_axial_rotation	L2_L3_Flex_Ext	L2_L3_Lat_Bending	L2_L3_axial_rotation	L1_L2_Flex_Ext	L1_L2_Lat_Bending	L1_L2_axial_rotation	L1_T12_Flex_Ext	L1_T12_Lat_Bending	L1_T12_axial_rotation	Abs_r3	Abs_r2	Abs_r1	Abs_t1	Abs_t2	neck_flexion	neck_bending	neck_rotation	arm_flex_r	arm_add_r	arm_rot_r	elbow_flex_r	pro_sup_r	wrist_flex_r	wrist_dev_r	arm_flex_l	arm_add_l	arm_rot_l	elbow_flex_l	pro_sup_l	wrist_flex_l	wrist_dev_l
      0.00000000	     -0.32157468	     -5.13585588	     87.91372343	      0.19131714	      0.96859506	      0.50895882	      7.64603857	     -1.88529937	     -4.97581468	     11.17553494	      0.19504988	     26.44565964	      8.47666637	      0.00000000	      5.49347002	     -0.30665172	     11.66021419	      6.29117002	      0.10980163	     19.11573902	    -14.98399819	      0.00000000	      0.07027692	      0.02702494	      1.68562898	      0.13051126	      0.03594317	      1.79098079	      0.11545795	      0.06570844	      1.79098079	      0.08031949	      0.06570844	      1.47492536	      0.06525915	      0.05510926	      1.36957354	      0.04015623	      0.04186163	      1.26422173	      0.50198100	      0.30571155	      9.37496269	      0.00000000	      0.00000000	     25.01909224	      4.34454080	     -4.30307097	      9.58903412	    -17.96478496	     60.07293501	     51.57573837	     87.38184031	    -16.36740962	      5.08718769	     17.88539110	    -10.94156716	     69.85898115	     47.07793267	     78.39463314	      8.14578612	      3.64988954
      0.01724138	     -0.50837214	     -4.86443006	     88.00226190	      0.19092180	      0.96855378	      0.50854827	      7.21772701	     -2.02786368	     -4.26402810	     11.09458284	      0.19363700	     26.94690192	      7.33480614	      0.00000000	      5.02906804	     -0.10149880	     11.68721848	      5.58537470	      0.09748318	     19.89173391	    -15.23764965	      0.00000000	      0.06648838	      0.00615223	      1.73613005	      0.12347557	      0.00818247	      1.84463817	      0.10923376	      0.01495853	      1.84463817	      0.07598957	      0.01495853	      1.51911379	      0.06174111	      0.01254563	      1.41060566	      0.03799146	      0.00952980	      1.30209753	      0.47491986	      0.06959526	      9.65583448	      0.00000000	      0.00000000	     24.49933781	      4.33817898	     -4.74072609	      8.48640725	    -17.82803344	     57.08679061	     51.98975135	     85.99735884	    -11.22390743	      6.93123642	     19.21203563	    -10.97466844	     71.94023971	     47.05031110	     76.45157860	      7.65051311	      3.20914730
      0.03448276	     -0.66427924	     -4.65207886	     88.17009723	      0.19056245	      0.96848189	      0.50820570	      6.89667930	     -2.16334658	     -3.75051254	     11.09313758	      0.19361178	     27.33422727	      6.44729983	      0.00000000	      4.70856958	      0.07618073	     11.66003099	      5.14274231	      0.08975779	     20.48218739	    -15.19937273	      0.00000000	      0.05932104	     -0.01231367	      1.75173846	      0.11016510	     -0.01637718	      1.86122212	      0.09745853	     -0.02993946	      1.86122212	      0.06779801	     -0.02993946	      1.53277115	      0.05508551	     -0.02511004	      1.42328750	      0.03389604	     -0.01907388	      1.31380385	      0.42372423	     -0.13929471	      9.74264381	      0.00000000	      0.00000000	     24.16458021	      4.28466766	     -5.11196131	      7.93299689	    -17.55352680	     55.38740660	     52.02617292	     83.93201455	     -8.42698797	      8.48484799	     20.23274621	    -10.94015713	     73.12506217	     46.88652842	     77.24207420	      8.11837152	      2.70806990
      0.05172414	     -0.83538600	     -4.43707894	     88.40022702	      0.19026058	      0.96846786	      0.50769147	      6.57552061	     -2.34721985	     -3.62546397	     11.10683824	      0.19385090	     27.61845415	      6.02919140	      0.00000000	      4.33238210	      0.26182137	     11.75276044	      4.68398785	      0.08175101	     20.74640611	    -15.09093261	      0.00000000	      0.04605969	     -0.03116553	      1.73316560	      0.08553745	     -0.04145015	      1.84148845	      0.07567146	     -0.07577587	      1.84148845	      0.05264162	     -0.07577587	      1.51651990	      0.04277103	     -0.06355275	      1.40819705	      0.02631851	     -0.04827541	      1.29987420	      0.32899974	     -0.35255071	      9.63934711	      0.00000000	      0.00000000	     23.88789295	      4.30345239	     -5.03700623	      7.78892276	    -17.23114978	     54.68880042	     51.78965327	     82.94573711	     -7.47770471	      9.21718883	     21.06656824	    -11.00163476	     74.05404562	     46.92067682	     78.68118566	      8.66732330	      2.79812029
      0.06896552	     -0.90343074	     -4.41233729	     88.53463200	      0.18988992	      0.96828282	      0.50714384	      6.42456152	     -2.36795777	     -2.96254599	     10.99237472	      0.19185313	     27.58794731	      4.94430297	      0.00000000	      4.25344019	      0.36501364	     11.84536990	      4.53910877	      0.07922239	     20.88493891	    -15.20083701	      0.00000000	      0.05368129	     -0.03844688	      1.77806945	      0.09969153	     -0.05113435	      1.88919879	      0.08819300	     -0.09347974	      1.88919879	      0.06135235	     -0.09347974	      1.55581077	      0.04984845	     -0.07840087	      1.44468143	      0.03067349	     -0.05955421	      1.33355209	      0.38344012	     -0.43491877	      9.88908888	      0.00000000	      0.00000000	     23.89041622	      4.11188022	     -5.54222739	      7.11913295	    -16.84318289	     52.48706569	     51.69830904	     80.29071831	     -5.45706293	     10.82125574	     21.43388258	    -10.70397817	     73.89508293	     46.50415634	     83.37028085	      9.86172752	      1.68453470
      0.08620690	     -0.98613727	     -4.32707363	     88.79841075	      0.18956015	      0.96819881	      0.50663128	      6.24087027	     -2.45744010	     -2.83602572	     10.95616983	      0.19122124	     27.62156497	      4.48333135	      0.00000000	      4.11634891	      0.48119704	     12.10116156	      4.43434272	      0.07739388	     20.84990675	    -15.25977398	      0.00000000	      0.04723495	     -0.04824596	      1.75162291	      0.08772002	     -0.06416713	      1.86109934	      0.07760229	     -0.11730524	      1.86109934	      0.05398482	     -0.11730524	      1.53267004	      0.04386237	     -0.09838317	      1.42319361	      0.02699005	     -0.07473300	      1.31371718	      0.33739449	     -0.54576800	      9.74200112	      0.00000000	      0.00000000	     23.89960485	      4.13469054	     -5.59632999	      7.10475736	    -16.52063114	     51.92195698	     51.42268292	     79.10061768	     -5.24862629	     11.45114750	     21.82525414	    -10.69141217	     74.13811090	     46.47414104	     86.04816209	     10.69994575	      1.45193350
      0.10344828	     -1.02822863	     -4.23574361	     89.02913901	      0.18926836	      0.96821431	      0.50613204	      6.04147139	     -2.49409514	     -2.63873977	     10.86488365	      0.18962799	     27.51524511	      3.95284140	      0.00000000	      4.04672115	      0.54911554	     11.80102748	      4.53203035	      0.07909885	     21.01216461	    -14.58259745	      0.00000000	      0.03888080	     -0.05242257	      1.72752300	      0.07220554	     -0.06972202	      1.83549318	      0.06387727	     -0.12746024	      1.83549318	      0.04443687	     -0.12746024	      1.51158262	      0.03610471	     -0.10690011	      1.40361244	      0.02221649	     -0.08120256	      1.29564225	      0.27772169	     -0.59301460	      9.60796465	      0.00000000	      0.00000000	     23.90294187	      4.12661237	     -5.57754713	      7.23025650	    -16.31573629	     51.80365994	     51.20543912	     78.38721755	     -5.55684847	     11.72790500	     22.16214928	    -10.63160181	     74.55478508	     46.32388427	     87.42521892	     11.37470695	      1.21054234
      0.12068966	     -1.05695575	     -4.19033310	     89.34560148	      0.18878850	      0.96823949	      0.50572629	      5.91252117	     -2.54704414	     -2.65160410	     10.80856190	      0.18864499	     27.49812888	      3.63765557	      0.00000000	      3.99596884	      0.62650686	     12.09324667	      4.54156366	      0.07926524	     20.74063860	    -14.72375296	      0.00000000	      0.03738863	     -0.05361835	      1.69856487	      0.06943442	     -0.07131241	      1.80472517	      0.06142578	     -0.13036766	      1.80472517	      0.04273146	     -0.13036766	      1.48624426	      0.03471908	     -0.10933855	      1.38008395	      0.02136386	     -0.08305483	      1.27392365	      0.26706323	     -0.60654154	      9.44690822	      0.00000000	      0.00000000	     23.89730169	      4.04733566	     -5.69659349	      7.09687377	    -16.08148122	     50.94071903	     51.04651925	     79.69875273	     -5.34097267	     11.92216376	     22.57753360	    -10.60806996	     75.57917862	     46.36671464	     87.90346983	     11.04560771	      1.30154744
